<mxfile host="app.diagrams.net" modified="2024-03-23T20:24:40.686Z" agent="Mozilla/5.0 (Windows NT 10.0; Win64; x64; rv:124.0) Gecko/20100101 Firefox/124.0" etag="lnnELtteqmn_YHqBrn3M" version="24.0.7" type="github">
  <diagram name="Seite-1" id="KMl3AECujIuUydmyVphU">
    <mxGraphModel dx="683" dy="1519" grid="1" gridSize="10" guides="1" tooltips="1" connect="1" arrows="1" fold="1" page="1" pageScale="1" pageWidth="827" pageHeight="1169" math="0" shadow="0">
      <root>
        <mxCell id="0" />
        <mxCell id="1" parent="0" />
        <mxCell id="sVGXJTNaxyb43pElVPDB-1" value="-" style="ellipse;whiteSpace=wrap;html=1;aspect=fixed;fontSize=30;" vertex="1" parent="1">
          <mxGeometry x="40" y="80" width="80" height="80" as="geometry" />
        </mxCell>
        <mxCell id="sVGXJTNaxyb43pElVPDB-2" value="&lt;font style=&quot;font-size: 30px;&quot;&gt;&lt;span style=&quot;left: 187.593px; top: 579.67px; font-family: sans-serif; transform: scaleX(1.01917); font-size: 30px;&quot; role=&quot;presentation&quot; dir=&quot;ltr&quot;&gt;φA&lt;/span&gt;&lt;/font&gt;B" style="ellipse;whiteSpace=wrap;html=1;aspect=fixed;fontSize=30;" vertex="1" parent="1">
          <mxGeometry x="160" width="80" height="80" as="geometry" />
        </mxCell>
        <mxCell id="sVGXJTNaxyb43pElVPDB-3" value="F&lt;span style=&quot;left: 187.593px; top: 579.67px; font-size: 30px; font-family: sans-serif; transform: scaleX(1.01917);&quot; role=&quot;presentation&quot; dir=&quot;ltr&quot;&gt;ψ&lt;/span&gt;" style="ellipse;whiteSpace=wrap;html=1;aspect=fixed;fontSize=30;" vertex="1" parent="1">
          <mxGeometry x="1010" y="60" width="80" height="80" as="geometry" />
        </mxCell>
        <mxCell id="sVGXJTNaxyb43pElVPDB-4" value="" style="endArrow=classic;html=1;rounded=0;curved=1;entryX=0;entryY=0.5;entryDx=0;entryDy=0;exitX=1;exitY=0.5;exitDx=0;exitDy=0;" edge="1" parent="1" source="sVGXJTNaxyb43pElVPDB-1" target="sVGXJTNaxyb43pElVPDB-2">
          <mxGeometry width="50" height="50" relative="1" as="geometry">
            <mxPoint x="150" y="130" as="sourcePoint" />
            <mxPoint x="170" y="129.66000000000003" as="targetPoint" />
          </mxGeometry>
        </mxCell>
        <mxCell id="sVGXJTNaxyb43pElVPDB-5" value="ABC" style="ellipse;whiteSpace=wrap;html=1;aspect=fixed;fontSize=30;" vertex="1" parent="1">
          <mxGeometry x="280" y="-60" width="80" height="80" as="geometry" />
        </mxCell>
        <mxCell id="sVGXJTNaxyb43pElVPDB-6" value="ACE" style="ellipse;whiteSpace=wrap;html=1;aspect=fixed;fontSize=30;" vertex="1" parent="1">
          <mxGeometry x="280" y="250" width="80" height="80" as="geometry" />
        </mxCell>
        <mxCell id="sVGXJTNaxyb43pElVPDB-15" value="" style="endArrow=classic;html=1;rounded=0;curved=1;exitX=1;exitY=0.5;exitDx=0;exitDy=0;" edge="1" parent="1" source="sVGXJTNaxyb43pElVPDB-5">
          <mxGeometry width="50" height="50" relative="1" as="geometry">
            <mxPoint x="400" y="60" as="sourcePoint" />
            <mxPoint x="410" y="-60" as="targetPoint" />
          </mxGeometry>
        </mxCell>
        <mxCell id="sVGXJTNaxyb43pElVPDB-16" value="" style="endArrow=classic;html=1;rounded=0;curved=1;exitX=1;exitY=0.5;exitDx=0;exitDy=0;" edge="1" parent="1" source="sVGXJTNaxyb43pElVPDB-5">
          <mxGeometry width="50" height="50" relative="1" as="geometry">
            <mxPoint x="370" y="20" as="sourcePoint" />
            <mxPoint x="410" as="targetPoint" />
          </mxGeometry>
        </mxCell>
        <mxCell id="sVGXJTNaxyb43pElVPDB-27" value="" style="endArrow=classic;html=1;rounded=0;curved=1;exitX=1;exitY=1;exitDx=0;exitDy=0;entryX=0;entryY=0.5;entryDx=0;entryDy=0;" edge="1" parent="1" target="sVGXJTNaxyb43pElVPDB-3">
          <mxGeometry width="50" height="50" relative="1" as="geometry">
            <mxPoint x="958.2842712474621" y="28.28427124746213" as="sourcePoint" />
            <mxPoint x="670" y="170" as="targetPoint" />
          </mxGeometry>
        </mxCell>
        <mxCell id="sVGXJTNaxyb43pElVPDB-30" value="" style="endArrow=classic;html=1;rounded=0;curved=1;exitX=1;exitY=0.5;exitDx=0;exitDy=0;entryX=0;entryY=0.5;entryDx=0;entryDy=0;" edge="1" parent="1" target="sVGXJTNaxyb43pElVPDB-3">
          <mxGeometry width="50" height="50" relative="1" as="geometry">
            <mxPoint x="870" y="130" as="sourcePoint" />
            <mxPoint x="670" y="170" as="targetPoint" />
          </mxGeometry>
        </mxCell>
        <mxCell id="sVGXJTNaxyb43pElVPDB-39" value="&lt;font style=&quot;font-size: 30px;&quot;&gt;&lt;span style=&quot;left: 187.593px; top: 579.67px; font-family: sans-serif; transform: scaleX(1.01917); font-size: 30px;&quot; role=&quot;presentation&quot; dir=&quot;ltr&quot;&gt;φA&lt;/span&gt;&lt;/font&gt;C" style="ellipse;whiteSpace=wrap;html=1;aspect=fixed;fontSize=30;" vertex="1" parent="1">
          <mxGeometry x="160" y="160" width="80" height="80" as="geometry" />
        </mxCell>
        <mxCell id="sVGXJTNaxyb43pElVPDB-41" value="" style="endArrow=classic;html=1;rounded=0;curved=1;exitX=1;exitY=0.5;exitDx=0;exitDy=0;entryX=0;entryY=0.5;entryDx=0;entryDy=0;" edge="1" parent="1" source="sVGXJTNaxyb43pElVPDB-1" target="sVGXJTNaxyb43pElVPDB-39">
          <mxGeometry width="50" height="50" relative="1" as="geometry">
            <mxPoint x="300" y="170" as="sourcePoint" />
            <mxPoint x="340" y="170" as="targetPoint" />
          </mxGeometry>
        </mxCell>
        <mxCell id="sVGXJTNaxyb43pElVPDB-42" value="" style="endArrow=classic;html=1;rounded=0;curved=1;exitX=1;exitY=0.5;exitDx=0;exitDy=0;entryX=0;entryY=0.5;entryDx=0;entryDy=0;" edge="1" parent="1" source="sVGXJTNaxyb43pElVPDB-2" target="sVGXJTNaxyb43pElVPDB-5">
          <mxGeometry width="50" height="50" relative="1" as="geometry">
            <mxPoint x="290" y="90" as="sourcePoint" />
            <mxPoint x="330" y="90" as="targetPoint" />
          </mxGeometry>
        </mxCell>
        <mxCell id="sVGXJTNaxyb43pElVPDB-43" value="ABD" style="ellipse;whiteSpace=wrap;html=1;aspect=fixed;fontSize=30;" vertex="1" parent="1">
          <mxGeometry x="280" y="40" width="80" height="80" as="geometry" />
        </mxCell>
        <mxCell id="sVGXJTNaxyb43pElVPDB-44" value="" style="endArrow=classic;html=1;rounded=0;curved=1;exitX=1;exitY=0.5;exitDx=0;exitDy=0;entryX=0;entryY=0.5;entryDx=0;entryDy=0;" edge="1" parent="1" source="sVGXJTNaxyb43pElVPDB-2" target="sVGXJTNaxyb43pElVPDB-43">
          <mxGeometry width="50" height="50" relative="1" as="geometry">
            <mxPoint x="290" y="90" as="sourcePoint" />
            <mxPoint x="330" y="90" as="targetPoint" />
          </mxGeometry>
        </mxCell>
        <mxCell id="sVGXJTNaxyb43pElVPDB-45" value="ACB" style="ellipse;whiteSpace=wrap;html=1;aspect=fixed;fontSize=30;" vertex="1" parent="1">
          <mxGeometry x="280" y="150" width="80" height="80" as="geometry" />
        </mxCell>
        <mxCell id="sVGXJTNaxyb43pElVPDB-46" value="" style="endArrow=classic;html=1;rounded=0;curved=1;exitX=1;exitY=0.5;exitDx=0;exitDy=0;entryX=0;entryY=0.5;entryDx=0;entryDy=0;" edge="1" parent="1" source="sVGXJTNaxyb43pElVPDB-39" target="sVGXJTNaxyb43pElVPDB-45">
          <mxGeometry width="50" height="50" relative="1" as="geometry">
            <mxPoint x="300" y="200" as="sourcePoint" />
            <mxPoint x="340" y="200" as="targetPoint" />
          </mxGeometry>
        </mxCell>
        <mxCell id="sVGXJTNaxyb43pElVPDB-47" value="" style="endArrow=classic;html=1;rounded=0;curved=1;exitX=1;exitY=0.5;exitDx=0;exitDy=0;entryX=0;entryY=0.5;entryDx=0;entryDy=0;" edge="1" parent="1" source="sVGXJTNaxyb43pElVPDB-39" target="sVGXJTNaxyb43pElVPDB-6">
          <mxGeometry width="50" height="50" relative="1" as="geometry">
            <mxPoint x="300" y="200" as="sourcePoint" />
            <mxPoint x="340" y="200" as="targetPoint" />
          </mxGeometry>
        </mxCell>
      </root>
    </mxGraphModel>
  </diagram>
</mxfile>
